<svg aria-hidden="true" style="position: absolute; width: 0; height: 0; overflow: hidden;" version="1.1" xmlns="http://www.w3.org/2000/svg" xmlns:xlink="http://www.w3.org/1999/xlink">
<defs>
<symbol id="icon-Twit" viewBox="0 0 38 32">
<path d="M37.647 3.621c-1.4 0.614-2.892 1.021-4.447 1.219 1.6-0.955 2.821-2.456 3.395-4.266-1.492 0.889-3.139 1.518-4.894 1.868-1.416-1.508-3.435-2.442-5.638-2.442-4.273 0-7.713 3.468-7.713 7.72 0 0.612 0.052 1.2 0.179 1.76-6.416-0.313-12.094-3.388-15.908-8.073-0.666 1.155-1.056 2.478-1.056 3.901 0 2.673 1.376 5.042 3.428 6.414-1.24-0.024-2.456-0.384-3.487-0.951 0 0.024 0 0.054 0 0.085 0 3.751 2.675 6.866 6.184 7.584-0.628 0.172-1.313 0.254-2.024 0.254-0.494 0-0.993-0.028-1.461-0.132 1 3.056 3.838 5.304 7.212 5.376-2.626 2.054-5.96 3.292-9.569 3.292-0.633 0-1.24-0.028-1.847-0.106 3.419 2.205 7.471 3.464 11.84 3.464 14.202 0 21.967-11.765 21.967-21.962 0-0.341-0.012-0.671-0.028-0.998 1.532-1.087 2.819-2.445 3.868-4.007z"></path>
</symbol>
<symbol id="icon-Insta" viewBox="0 0 32 32">
<path d="M31.261 9.707c-0.019-1.289-0.258-2.568-0.715-3.774-0.8-2.059-2.429-3.687-4.492-4.484-1.192-0.448-2.453-0.688-3.729-0.715-1.641-0.073-2.161-0.094-6.327-0.094s-4.7 0-6.329 0.094c-1.274 0.027-2.535 0.267-3.727 0.715-2.062 0.797-3.693 2.425-4.492 4.484-0.449 1.19-0.691 2.449-0.715 3.721-0.073 1.64-0.096 2.159-0.096 6.318s0 4.69 0.096 6.318c0.026 1.274 0.266 2.531 0.715 3.725 0.8 2.057 2.429 3.685 4.493 4.482 1.187 0.463 2.448 0.726 3.727 0.766 1.643 0.073 2.163 0.095 6.329 0.095s4.7 0 6.329-0.095c1.274-0.025 2.535-0.266 3.729-0.714 2.062-0.799 3.692-2.427 4.492-4.484 0.449-1.192 0.689-2.449 0.715-3.725 0.073-1.638 0.096-2.158 0.096-6.318-0.003-4.159-0.003-4.687-0.099-6.317zM15.988 23.838c-4.357 0-7.886-3.524-7.886-7.873s3.53-7.873 7.886-7.873c4.354 0 7.886 3.524 7.886 7.873s-3.533 7.873-7.886 7.873zM24.188 9.636c-1.018 0-1.839-0.821-1.839-1.836s0.82-1.836 1.839-1.836c1.015 0 1.837 0.821 1.837 1.836s-0.822 1.836-1.837 1.836z"></path>
</symbol>
<symbol id="icon-facebook" viewBox="0 0 14 32">
<path d="M11.804 0.854c0.32 0 0.64 0 1.28 0v4.8c-0.32 0-0.96 0-1.6 0s-1.28 0-1.6 0.32c-0.32 0.32-0.32 0.64-0.32 1.387 0 0.64 0 1.067 0 1.707h3.52v4.053h-3.52v17.6h-5.44v-17.707h-2.88v-4.053h2.88v-1.387c0-2.347 0.32-4.053 0.96-4.8 0.96-1.387 2.88-2.027 5.76-2.027 0.32 0.107 0.64 0.107 0.96 0.107z"></path>
</symbol>
<symbol id="icon-Vector" viewBox="0 0 28 32">
<path fill="none" stroke="#fd9222" stroke-width="2.6667" stroke-miterlimit="4" stroke-linecap="round" stroke-linejoin="round" style="stroke: var(--color1, #fd9222)" d="M20.301 23.879l-14.186-8.864M10.027 8.599l14.186 8.864M9.297 25.864l11.736-19.25M25.843 14.789c-3.040-1.899-4.234-3.384-2.278-6.592l-9.626-6.015-11.736 19.25 14.186 8.864 9.454-15.507z"></path>
</symbol>
<symbol id="icon-2" viewBox="0 0 32 32">
<path  d="M16.947 17.867c-0.124 0.125-0.271 0.224-0.434 0.292s-0.337 0.103-0.513 0.103-0.35-0.035-0.513-0.103c-0.162-0.068-0.31-0.167-0.434-0.292l-6.107-6.12c-0.124-0.125-0.271-0.224-0.434-0.292s-0.337-0.103-0.513-0.103c-0.176 0-0.35 0.035-0.513 0.103s-0.31 0.167-0.434 0.292c-0.248 0.25-0.388 0.588-0.388 0.94s0.139 0.69 0.388 0.94l6.12 6.12c0.75 0.749 1.767 1.17 2.827 1.17s2.077-0.421 2.827-1.17l6.12-6.12c0.246-0.248 0.385-0.584 0.387-0.933 0.001-0.175-0.033-0.349-0.099-0.512s-0.164-0.31-0.288-0.435c-0.124-0.125-0.271-0.224-0.434-0.292s-0.337-0.103-0.513-0.103-0.35 0.035-0.513 0.103c-0.162 0.068-0.31 0.167-0.434 0.292l-6.107 6.12z"></path>
</symbol>
<symbol id="icon-twit1" viewBox="0 0 38 32">
<path d="M37.647 3.621c-1.4 0.614-2.892 1.021-4.447 1.219 1.6-0.955 2.821-2.456 3.395-4.266-1.492 0.889-3.139 1.518-4.894 1.868-1.416-1.508-3.435-2.442-5.638-2.442-4.273 0-7.713 3.468-7.713 7.72 0 0.612 0.052 1.2 0.179 1.76-6.416-0.313-12.094-3.388-15.908-8.073-0.666 1.155-1.056 2.478-1.056 3.901 0 2.673 1.376 5.042 3.428 6.414-1.24-0.024-2.456-0.384-3.487-0.951 0 0.024 0 0.054 0 0.085 0 3.751 2.675 6.866 6.184 7.584-0.628 0.172-1.313 0.254-2.024 0.254-0.494 0-0.993-0.028-1.461-0.132 1 3.056 3.838 5.304 7.212 5.376-2.626 2.054-5.96 3.292-9.569 3.292-0.633 0-1.24-0.028-1.847-0.106 3.419 2.205 7.471 3.464 11.84 3.464 14.202 0 21.967-11.765 21.967-21.962 0-0.341-0.012-0.671-0.028-0.998 1.532-1.087 2.819-2.445 3.868-4.007z"></path>
</symbol>
<symbol id="icon-insta1" viewBox="0 0 32 32">
<path d="M31.261 9.707c-0.019-1.289-0.258-2.568-0.715-3.774-0.8-2.059-2.429-3.687-4.492-4.484-1.192-0.448-2.453-0.688-3.729-0.715-1.641-0.073-2.161-0.094-6.327-0.094s-4.7 0-6.329 0.094c-1.274 0.027-2.535 0.267-3.727 0.715-2.062 0.797-3.693 2.425-4.492 4.484-0.449 1.19-0.691 2.449-0.715 3.721-0.073 1.64-0.096 2.159-0.096 6.318s0 4.69 0.096 6.318c0.026 1.274 0.266 2.531 0.715 3.725 0.8 2.057 2.429 3.685 4.493 4.482 1.187 0.463 2.448 0.726 3.727 0.766 1.643 0.073 2.163 0.095 6.329 0.095s4.7 0 6.329-0.095c1.274-0.026 2.535-0.266 3.729-0.714 2.062-0.799 3.692-2.427 4.492-4.484 0.449-1.192 0.689-2.449 0.715-3.725 0.073-1.638 0.096-2.158 0.096-6.318-0.003-4.159-0.003-4.687-0.099-6.317zM15.988 23.837c-4.357 0-7.886-3.524-7.886-7.873s3.53-7.873 7.886-7.873c4.354 0 7.886 3.524 7.886 7.873s-3.533 7.873-7.886 7.873zM24.188 9.635c-1.018 0-1.839-0.821-1.839-1.836s0.82-1.836 1.839-1.836c1.015 0 1.837 0.821 1.837 1.836s-0.822 1.836-1.837 1.836z"></path>
</symbol>
<symbol id="icon-facebook1" viewBox="0 0 14 32">
<path d="M11.804 0.854c0.32 0 0.64 0 1.28 0v4.8c-0.32 0-0.96 0-1.6 0s-1.28 0-1.6 0.32c-0.32 0.32-0.32 0.64-0.32 1.387 0 0.64 0 1.067 0 1.707h3.52v4.053h-3.52v17.6h-5.44v-17.707h-2.88v-4.053h2.88v-1.387c0-2.347 0.32-4.053 0.96-4.8 0.96-1.387 2.88-2.027 5.76-2.027 0.32 0.107 0.64 0.107 0.96 0.107z"></path>
</symbol>
<symbol id="icon-menu-icon" viewBox="0 0 32 32">
<path stroke-width="2.2857" stroke-miterlimit="4" stroke-linecap="round" stroke-linejoin="round" d="M4 16h24M4 8h24M4 24h24"></path>
</symbol>
<symbol id="icon-Group11" viewBox="0 0 36 32">
<path d="M1.199 4.002c0-0.637 0.253-1.247 0.703-1.697s1.061-0.703 1.697-0.703h28.8c0.637 0 1.247 0.253 1.697 0.703s0.703 1.061 0.703 1.697-0.253 1.247-0.703 1.697c-0.45 0.45-1.060 0.703-1.697 0.703h-28.8c-0.637 0-1.247-0.253-1.697-0.703s-0.703-1.061-0.703-1.697z"></path>
<path d="M1.199 16.002c0-0.637 0.253-1.247 0.703-1.697s1.061-0.703 1.697-0.703h28.8c0.637 0 1.247 0.253 1.697 0.703s0.703 1.061 0.703 1.697-0.253 1.247-0.703 1.697c-0.45 0.45-1.060 0.703-1.697 0.703h-28.8c-0.637 0-1.247-0.253-1.697-0.703s-0.703-1.061-0.703-1.697z"></path>
<path d="M1.199 28.002c0-0.637 0.253-1.247 0.703-1.697s1.061-0.703 1.697-0.703h28.8c0.637 0 1.247 0.253 1.697 0.703s0.703 1.060 0.703 1.697c0 0.636-0.253 1.247-0.703 1.697s-1.060 0.703-1.697 0.703h-28.8c-0.637 0-1.247-0.253-1.697-0.703s-0.703-1.061-0.703-1.697z"></path>
</symbol>
<symbol id="icon-chocolate" viewBox="0 0 32 32">
<path fill="#111" style="fill: var(--color1, #111)" d="M13.822 2.413l7.527 7.536 0.080-0.080c0.158-0.154 0.369-0.242 0.589-0.244s0.434 0.080 0.595 0.231l0.873 0.873c0.305 0.305 0.315 0.77 0.083 1.094l-0.004 0.007-0.143 0.192 6.16 6.16c0.55 0.55 0.55 1.43 0 1.98l-9.43 9.43c-0.55 0.55-1.43 0.55-1.98 0l-4.447-4.447c-0.074 0.093-0.167 0.169-0.272 0.224s-0.221 0.086-0.34 0.093c-0.119 0.007-0.237-0.012-0.348-0.054s-0.212-0.108-0.296-0.192l-2.6-2.6c-0.154-0.158-0.242-0.369-0.244-0.589s0.080-0.434 0.231-0.595l0.006-0.007 0.077-0.076-7.527-7.527c-0.55-0.55-0.55-1.43 0-1.98l9.43-9.43c0.55-0.55 1.43-0.55 1.98 0v0.001zM20.404 10.893l-1.756-1.755c-0.055-0.057-0.121-0.102-0.194-0.133s-0.151-0.047-0.231-0.047c-0.079 0-0.158 0.016-0.231 0.047s-0.139 0.076-0.194 0.133l-3.58 3.58c-0.057 0.056-0.102 0.123-0.132 0.197s-0.047 0.153-0.047 0.233 0.016 0.159 0.047 0.233c0.031 0.074 0.076 0.141 0.132 0.197l1.749 1.749 0.61-0.61-1.565-1.565 3.21-3.22 1.569 1.574 0.613-0.613zM15.328 15.965l-1.754-1.754c-0.055-0.057-0.121-0.102-0.194-0.133s-0.152-0.047-0.231-0.047c-0.079 0-0.158 0.016-0.231 0.047s-0.139 0.076-0.194 0.133l-3.59 3.59c-0.24 0.23-0.24 0.61 0 0.85l1.752 1.752 0.616-0.616-1.57-1.564 3.22-3.21 1.564 1.563 0.612-0.611zM8.822 8.193l3.58 3.58c0.24 0.24 0.62 0.24 0.85-0.010l3.58-3.58c0.057-0.054 0.102-0.119 0.133-0.192s0.047-0.15 0.047-0.228h0.010c0-0.15-0.060-0.31-0.18-0.43l-3.58-3.58c-0.056-0.057-0.123-0.102-0.197-0.133s-0.153-0.047-0.233-0.047c-0.080 0-0.159 0.016-0.233 0.047s-0.141 0.076-0.197 0.133l-3.58 3.59c-0.24 0.23-0.24 0.61 0 0.85zM3.752 13.263l3.58 3.58c0.24 0.24 0.62 0.24 0.85 0l3.58-3.58c0.058-0.055 0.104-0.122 0.135-0.196s0.046-0.154 0.045-0.234h0.010c0-0.16-0.060-0.31-0.18-0.43l-3.58-3.58c-0.055-0.057-0.121-0.102-0.194-0.133s-0.151-0.047-0.231-0.047c-0.079 0-0.158 0.016-0.231 0.047s-0.139 0.076-0.194 0.133l-3.59 3.59c-0.24 0.23-0.24 0.61 0 0.85zM10.685 22.017l2.362 2.363 9.636-13.040-0.655-0.655-11.343 11.332z"></path>
<path fill="#fd9222" style="fill: var(--color2, #fd9222)" d="M13.822 2.413l7.527 7.536 0.080-0.080c0.158-0.154 0.369-0.242 0.589-0.244s0.434 0.080 0.595 0.231l0.873 0.873c0.305 0.305 0.315 0.77 0.083 1.094l-0.004 0.007-0.143 0.192 6.16 6.16c0.55 0.55 0.55 1.43 0 1.98l-9.43 9.43c-0.55 0.55-1.43 0.55-1.98 0l-4.447-4.447c-0.074 0.093-0.167 0.169-0.272 0.224s-0.221 0.086-0.34 0.093c-0.119 0.007-0.237-0.012-0.348-0.054s-0.212-0.108-0.296-0.192l-2.6-2.6c-0.154-0.158-0.242-0.369-0.244-0.589s0.080-0.434 0.231-0.595l0.006-0.007 0.077-0.076-7.527-7.527c-0.55-0.55-0.55-1.43 0-1.98l9.43-9.43c0.55-0.55 1.43-0.55 1.98 0v0.001zM20.404 10.893l-1.756-1.755c-0.055-0.057-0.121-0.102-0.194-0.133s-0.151-0.047-0.231-0.047c-0.079 0-0.158 0.016-0.231 0.047s-0.139 0.076-0.194 0.133l-3.58 3.58c-0.057 0.056-0.102 0.123-0.132 0.197s-0.047 0.153-0.047 0.233 0.016 0.159 0.047 0.233c0.031 0.074 0.076 0.141 0.132 0.197l1.749 1.749 0.61-0.61-1.565-1.565 3.21-3.22 1.569 1.574 0.613-0.613zM15.328 15.965l-1.754-1.754c-0.055-0.057-0.121-0.102-0.194-0.133s-0.152-0.047-0.231-0.047c-0.079 0-0.158 0.016-0.231 0.047s-0.139 0.076-0.194 0.133l-3.59 3.59c-0.24 0.23-0.24 0.61 0 0.85l1.752 1.752 0.616-0.616-1.57-1.564 3.22-3.21 1.564 1.563 0.612-0.611zM8.822 8.193l3.58 3.58c0.24 0.24 0.62 0.24 0.85-0.010l3.58-3.58c0.057-0.054 0.102-0.119 0.133-0.192s0.047-0.15 0.047-0.228h0.010c0-0.15-0.060-0.31-0.18-0.43l-3.58-3.58c-0.056-0.057-0.123-0.102-0.197-0.133s-0.153-0.047-0.233-0.047c-0.080 0-0.159 0.016-0.233 0.047s-0.141 0.076-0.197 0.133l-3.58 3.59c-0.24 0.23-0.24 0.61 0 0.85zM3.752 13.263l3.58 3.58c0.24 0.24 0.62 0.24 0.85 0l3.58-3.58c0.058-0.055 0.104-0.122 0.135-0.196s0.046-0.154 0.045-0.234h0.010c0-0.16-0.060-0.31-0.18-0.43l-3.58-3.58c-0.055-0.057-0.121-0.102-0.194-0.133s-0.151-0.047-0.231-0.047c-0.079 0-0.158 0.016-0.231 0.047s-0.139 0.076-0.194 0.133l-3.59 3.59c-0.24 0.23-0.24 0.61 0 0.85zM10.685 22.017l2.362 2.363 9.636-13.040-0.655-0.655-11.343 11.332z"></path>
</symbol>
<symbol id="icon-Coin" viewBox="0 0 32 32">
<path fill="#fd9222" style="fill: var(--color2, #fd9222)" d="M16 2.667c-7.333 0-13.333 6-13.333 13.333s6 13.333 13.333 13.333c7.333 0 13.333-6 13.333-13.333s-6-13.333-13.333-13.333zM16 26.667c-5.867 0-10.667-4.8-10.667-10.667s4.8-10.667 10.667-10.667c5.867 0 10.667 4.8 10.667 10.667s-4.8 10.667-10.667 10.667z"></path>
<path fill="#fd9222" style="fill: var(--color2, #fd9222)" d="M17.733 14.667h-3.467c-0.667 0-1.2-0.533-1.2-1.2s0.533-1.2 1.2-1.2h4.933c0.8 0 1.333-0.533 1.333-1.333s-0.533-1.333-1.333-1.333h-1.867v-1.2c0-0.8-0.533-1.333-1.333-1.333s-1.333 0.533-1.333 1.333v1.2h-0.4c-2.133 0-3.867 1.733-3.867 3.867s1.733 3.867 3.867 3.867h3.333c0.667 0 1.2 0.533 1.2 1.2s-0.533 1.2-1.2 1.2h-4.933c-0.8 0-1.333 0.533-1.333 1.333s0.533 1.333 1.333 1.333h2v1.2c0 0.8 0.533 1.333 1.333 1.333s1.333-0.533 1.333-1.333v-1.2h0.4c2.133 0 3.867-1.733 3.867-3.867s-1.733-3.867-3.867-3.867z"></path>
</symbol>
<symbol id="icon-spoon" viewBox="0 0 32 32">
<path fill="#fd9222" style="fill: var(--color2, #fd9222)" d="M15.452 14.106c-0.783-0.95-1.177-2.116-1.177-3.282 0-4.324 5.181-8.642 10.362-8.642 2.86 0 5.181 2.321 5.181 5.182 0 5.182-4.318 10.364-8.646 10.364-1.166 0-2.332-0.394-3.281-1.177l-12.758 12.761c-0.675 0.675-1.77 0.675-2.445 0s-0.675-1.771 0-2.445l12.764-12.761z"></path>
</symbol>
<symbol id="icon-Group-ingr" viewBox="0 0 32 32">
<path fill="none" stroke="#fafafa" stroke-width="1.3333" stroke-miterlimit="4" stroke-linecap="round" stroke-linejoin="round" style="stroke: var(--color1, #fafafa)" d="M9.143 16h13.714M22.857 16l-3.429-3.429M22.857 16l-3.429 3.429"></path>
<path fill="none" stroke="#fafafa" stroke-width="1.3333" stroke-miterlimit="4" stroke-linecap="round" stroke-linejoin="round" style="stroke: var(--color1, #fafafa)" d="M16 30.857c8.205 0 14.857-6.652 14.857-14.857s-6.652-14.857-14.857-14.857c-8.205 0-14.857 6.652-14.857 14.857s6.652 14.857 14.857 14.857z"></path>
</symbol>
<symbol id="icon-Group-ingr1" viewBox="0 0 32 32">
<path fill="none" stroke="#fd9222" stroke-width="1.3333" stroke-miterlimit="4" stroke-linecap="round" stroke-linejoin="round" style="stroke: var(--color1, #fd9222)" d="M9.143 16h13.714M22.857 16l-3.429-3.429M22.857 16l-3.429 3.429"></path>
<path fill="none" stroke="#fd9222" stroke-width="1.3333" stroke-miterlimit="4" stroke-linecap="round" stroke-linejoin="round" style="stroke: var(--color1, #fd9222)" d="M16 30.857c8.205 0 14.857-6.652 14.857-14.857s-6.652-14.857-14.857-14.857c-8.205 0-14.857 6.652-14.857 14.857s6.652 14.857 14.857 14.857z"></path>
</symbol>
<symbol id="icon-play" viewBox="0 0 32 32">
<path fill="#f5f4f4" style="fill: var(--color1, #f5f4f4)" d="M11.886 23.771v-13.714l12.8 6.857-12.8 6.857z"></path>
<path fill="none" stroke="#fff" stroke-width="0.9143" stroke-miterlimit="4" stroke-linecap="butt" stroke-linejoin="miter" style="stroke: var(--color2, #fff)" d="M31.543 16c0 8.584-6.959 15.543-15.543 15.543s-15.543-6.959-15.543-15.543c0-8.584 6.959-15.543 15.543-15.543s15.543 6.959 15.543 15.543z"></path>
</symbol>
<symbol id="icon-Ellipse-1" viewBox="0 0 32 32">
<path fill="#4c4c4c" stroke="#eceded" stroke-width="4" stroke-miterlimit="4" stroke-linecap="butt" stroke-linejoin="miter" style="fill: var(--color1, #4c4c4c); stroke: var(--color2, #eceded)" d="M30 16c0 7.732-6.268 14-14 14s-14-6.268-14-14c0-7.732 6.268-14 14-14s14 6.268 14 14z"></path>
</symbol>
    <symbol id="icon-menu" viewBox="0 0 32 32">
      <path stroke-linecap="round" stroke-linejoin="round" stroke-width="2.353" d="M4 11.333h24M4 20.667h24"/>
    </symbol>
</defs>
</svg>
